<svg version="1.0" xmlns="http://www.w3.org/2000/svg"
 width="500.000000pt" height="500.000000pt" viewBox="0 0 500.000000 500.000000"
 preserveAspectRatio="xMidYMid meet"><g transform="translate(0.000000,500.000000) scale(0.100000,-0.100000)"
fill="#000000" stroke="none"><path d="M2385 3381 c-46 -21 -95 -72 -115 -122 -20 -49 -29 -51 -66 -14 -90
90 -243 65 -295 -49 -23 -50 -24 -95 -4 -143 20 -48 41 -71 88 -94 47 -24 50
-44 5 -34 -18 4 -43 9 -56 12 l-23 6 23 -49 c29 -62 26 -60 40 -46 7 7 20 12
30 12 16 0 18 -11 18 -109 l0 -109 36 -6 c39 -8 546 -6 576 2 17 4 18 18 18
188 0 177 -1 184 -20 184 -18 0 -17 4 12 45 37 52 49 137 28 200 -28 84 -114
145 -205 145 -27 0 -68 -9 -90 -19z m135 -96 c39 -20 60 -53 60 -92 0 -70 -43
-113 -116 -113 -48 0 -104 53 -104 99 0 46 26 90 63 106 42 18 62 18 97 0z
m-391 -91 c25 -21 31 -34 31 -64 0 -105 -141 -125 -169 -24 -12 44 2 79 38 99
39 21 66 18 100 -11z m179 -155 l24 -29 -56 0 -57 0 16 30 c19 38 43 37 73 -1z
m308 -340 c10 -17 -13 -36 -27 -22 -12 12 -4 33 11 33 5 0 12 -5 16 -11z"/>
<path d="M2443 3248 c2 -7 10 -13 17 -13 7 0 15 6 18 13 2 7 -5 12 -18 12 -13
0 -20 -5 -17 -12z"/><path d="M2500 3215 c0 -8 7 -15 15 -15 8 0 15 7 15 15 0 8 -7 15 -15 15 -8 0
-15 -7 -15 -15z"/><path d="M2405 3210 c-7 -12 2 -30 16 -30 5 0 9 9 9 20 0 21 -15 27 -25 10z"/>
<path d="M2494 3159 c-10 -17 13 -36 27 -22 12 12 4 33 -11 33 -5 0 -12 -5
-16 -11z"/><path d="M2434 3146 c-8 -22 3 -33 18 -18 9 9 9 15 0 24 -9 9 -13 7 -18 -6z"/>
<path d="M2052 3179 c2 -6 8 -10 13 -10 5 0 11 4 13 10 2 6 -4 11 -13 11 -9 0
-15 -5 -13 -11z"/><path d="M2100 3150 c0 -5 5 -10 10 -10 6 0 10 5 10 10 0 6 -4 10 -10 10 -5 0
-10 -4 -10 -10z"/><path d="M2020 3141 c0 -6 5 -13 10 -16 6 -3 10 1 10 9 0 9 -4 16 -10 16 -5 0
-10 -4 -10 -9z"/><path d="M2090 3100 c0 -5 7 -10 15 -10 8 0 15 5 15 10 0 6 -7 10 -15 10 -8 0
-15 -4 -15 -10z"/><path d="M2040 3090 c0 -5 5 -10 10 -10 6 0 10 5 10 10 0 6 -4 10 -10 10 -5 0
-10 -4 -10 -10z"/><path d="M2810 3000 c-34 -23 -56 -30 -92 -30 l-48 0 0 -85 0 -85 43 0 c23 0
51 -6 62 -13 11 -7 37 -24 58 -36 l37 -23 0 151 c0 83 -3 151 -7 151 -5 0 -28
-14 -53 -30z"/></g></svg>
